<?xml version="1.0" encoding="utf-8"?>
<!-- Generator: Adobe Illustrator 19.0.0, SVG Export Plug-In . SVG Version: 6.00 Build 0)  -->
<svg version="1.1" id="Layer_1" xmlns="http://www.w3.org/2000/svg" xmlns:xlink="http://www.w3.org/1999/xlink" x="0px" y="0px"
	 viewBox="0 0 192.891 293.279" style="enable-background:new 0 0 192.891 293.279;" xml:space="preserve">
<style type="text/css">
	.st0{fill:#FFFFFF;}
	.st1{fill:#FFF8D7;}
	.st2{fill-rule:evenodd;clip-rule:evenodd;fill:#026937;}
	.st3{fill-rule:evenodd;clip-rule:evenodd;fill:#FFE01E;}
	.st4{fill:none;stroke:#026937;stroke-width:2.9631;}
	.st5{fill:#026937;}
	.st6{fill:#FFE01E;}
</style>
<path id="XMLID_174_" class="st0" d="M168.543,5.651c0-2.303-1.905-4.17-4.251-4.17H5.731c-2.346,0-4.25,1.867-4.25,4.17v281.977
	c0,2.303,1.903,4.169,4.25,4.169h158.561c2.346,0,4.251-1.866,4.251-4.169V5.651z"/>
<rect id="XMLID_173_" x="11.758" y="67.515" class="st1" width="144.953" height="154.294"/>
<path id="XMLID_172_" class="st2" d="M139.981,68.495c4.352,0,6.722,4.867,6.722,6.514c0,4.483-5.954,6.596-6.014,11.878
	c-0.047,4.162,3.539,4.828,3.539,9.963c0,11.416-19.818,12.03-19.818,20.69c0,2.337,2.514,3.448,4.601,3.448
	c6.441,0,15.43-3.065,19.462-3.065c5.238,0,8.493,2.721,8.493,7.28c0,6.668-5.06,6.438-6.37,8.813
	c-1.062,1.953-1.33,9.58-9.199,9.58h-8.139c-1.133,0-5.555-1.458-8.493-1.532c-10.615-0.383-6.475,0-8.491,0
	c-3.221,0-8.874-0.349-8.874,3.482c0,0.766,2.098,2.75,3.123,2.75c0.388,0,0.658-0.112,1.047-0.034l0.104-0.068
	c0.779,0,8.952-2.298,10.617-2.298h3.891c5.238,0,12.74,3.393,12.74,9.961v4.982c0,10.843-9.943,19.157-15.569,19.157
	c-9.094,0-20.172-8.045-26.54-8.045c-3.822,0-10.263,5.516-10.263,10.344c0,6.705,9.201,8.62,9.201,17.241
	c0,3.949-3.888,13.143-13.092,12.263c0,0-6.203-0.213-10.089-0.967c-4.597-0.893-4.6-4.597-11.497-3.631
	c-13.765,1.927-19.286,14.741-44.23,13.793c2.441-1.762,4.244-4.867,4.244-8.429c0-8.354-8.846-19.159-8.846-24.14
	c0-5.173,10.262-4.214,10.262-9.195c0-4.139-9.555-15.441-9.555-21.84c0-5.096,2.797-7.28,6.37-7.28c5.344,0,10.05,6.13,16.277,6.13
	c3.929,0,4.6-5.211,4.6-6.513c0-5.21-10.261-20.766-10.261-27.205c0-9.195,8.245-9.808,10.261-17.241
	c2.265-8.392,5.842-12.108,12.031-11.878c15.389,0.572,8.666,31.606,16.278,31.801c2.901,0.075,4.6-6.904,4.6-22.605v-4.981
	c0-3.227,2.654-14.56,8.492-14.56h3.892c6.902,0,9.662-9.197,14.863-9.197c3.327,0,5.306,2.721,5.306,6.132
	c0,6.13-6.368,13.525-6.368,16.477c0,1.11,1.096,2.906,2.123,2.299c13.263-7.857,5.656-16.861,17.862-25.674
	c1.443-1.041,7.685,1.532,7.968,1.532C129.894,74.625,132.444,68.495,139.981,68.495L139.981,68.495z"/>
<g id="XMLID_162_">
	<path id="XMLID_171_" class="st3" d="M78.465,84.347h3.892c1.745,0,3.224-0.59,4.546-1.469c-0.462,0.091-0.938,0.152-1.442,0.152
		h-3.892c-1.227,0-2.311,0.505-3.262,1.326C78.36,84.354,78.411,84.347,78.465,84.347z"/>
	<path id="XMLID_170_" class="st3" d="M16.44,184.133c-0.387,0.161-0.76,0.331-1.122,0.508
		C15.705,184.479,16.078,184.309,16.44,184.133z"/>
	<path id="XMLID_169_" class="st3" d="M97.246,75.175c3.327,0,5.306,2.721,5.306,6.132c0,6.131-6.368,13.525-6.368,16.477
		c0,1.11,1.486,3.139,2.514,2.532c0.779-0.462,1.879-1.009,2.522-1.478c-0.639-0.424-1.903-1.611-1.903-2.36
		c0-2.951,6.366-10.355,6.366-16.485c0-3.411-1.975-6.146-5.302-6.146c-1.253,0-2.439,0.548-3.5,1.358
		C96.989,75.198,97.136,75.175,97.246,75.175z"/>
	<path id="XMLID_168_" class="st3" d="M124.137,75.941c0.839,0,2.458-0.508,3.439-1.347c-1.5-0.517-7.052-2.428-8.338-1.518
		c-0.514,0.363-0.974,0.737-1.418,1.106C120.195,74.427,123.921,75.941,124.137,75.941z"/>
	<path id="XMLID_167_" class="st3" d="M49.121,94.718c15.389,0.572,8.666,31.606,16.278,31.801c0.794,0.021,1.494-0.508,2.098-1.578
		c-5.993-2.909-0.591-31.064-15.229-31.608c-2.402-0.089-4.517,0.494-6.208,1.637C46.984,94.767,48.045,94.678,49.121,94.718z"/>
	<path id="XMLID_166_" class="st3" d="M16.212,151.348c5.344,0,10.051,6.13,16.277,6.13c1.271,0,2.197-0.548,2.873-1.33
		c-6.111-0.15-10.769-6.117-16.046-6.117c-1.604,0-3.048,0.445-4.157,1.39C15.503,151.376,15.852,151.348,16.212,151.348z"/>
	<path id="XMLID_165_" class="st3" d="M148.603,117.747c-4.032,0-13.06,3.206-19.5,3.206c-2.087,0-4.616-1.076-4.616-3.413
		c0-8.66,19.818-9.274,19.818-20.69c0-5.135-3.586-5.801-3.539-9.963c0.06-5.282,6.014-7.395,6.014-11.878
		c0-1.647-2.37-6.514-6.722-6.514c-2.64,0-4.266,0.481-5.9,1.459c0.957-0.255,1.613-0.142,2.797-0.142
		c4.352,0,6.722,4.867,6.722,6.514c0,4.483-5.954,6.596-6.014,11.878c-0.047,4.162,3.539,4.828,3.539,9.963
		c0,11.416-19.818,12.03-19.818,20.69c0,2.337,2.514,3.448,4.601,3.448c6.441,0,15.43-3.065,19.462-3.065
		c5.238,0,8.493,2.721,8.493,7.28c0,6.668-5.06,6.438-6.37,8.813c-0.766,1.41-1.12,5.784-4.212,8.104
		c6.035-1.119,6.346-7.637,7.316-9.421c1.31-2.375,6.37-2.145,6.37-8.813C157.043,120.643,153.84,117.747,148.603,117.747z"/>
	<path id="XMLID_164_" class="st3" d="M126.201,145.852l-3.978,0.015c-1.664,0-9.791,2.309-10.569,2.309
		c-0.463,0.068-0.655,0.017-1.043,0.017c-1.025,0-3.185-1.916-3.185-2.682c0-0.843,0.283-1.471,0.742-1.955
		c-2.102,0.314-3.846,1.139-3.846,3.27c0,0.767,2.182,2.469,3.185,2.683c0.355,0.076,0.509,0.127,1.062,0
		c1.061-0.263,8.952-2.298,10.617-2.298h3.891c5.238,0,12.74,3.394,12.74,9.962v4.981c0,8.009-5.426,14.665-10.53,17.583
		c5.704-1.526,13.668-9.213,13.668-18.898v-4.982C138.954,149.288,131.438,145.852,126.201,145.852z"/>
	<path id="XMLID_163_" class="st3" d="M92.786,173.384c-3.848,0.783-9.282,5.789-9.282,10.225c0,6.706,9.202,8.62,9.202,17.241
		c0,2.735-1.883,7.987-6.086,10.665c6.182-1.383,9.189-8.649,9.189-11.981c0-8.62-9.201-10.536-9.201-17.241
		C86.608,178.978,89.645,175.338,92.786,173.384z"/>
</g>
<g id="XMLID_154_">
	<path id="XMLID_161_" class="st1" d="M85.134,104.896v10.344c0,0.116-0.993,5.594-3.185,10.345
		c0.282-1.263,1.062-2.757,1.062-4.597v-11.111c0-2.376,0.777-9.54,3.893-13.409C86.621,97.308,85.134,103.402,85.134,104.896
		L85.134,104.896z"/>
	<path id="XMLID_160_" class="st1" d="M48.687,109.11c2.087,6.858,1.543,5.553,2.123,9.196c0.937,5.898,0.1,9.377,0.708,15.327
		c0.912,8.941,4.244,11.648,4.244,22.605v1.15c0-8.162-6.226-19.159-6.368-25.671C49.395,131.717,49.89,112.406,48.687,109.11
		L48.687,109.11z"/>
	<path id="XMLID_159_" class="st1" d="M142.104,128.267c-0.744,0.191-7.644,4.599-14.863,4.599c-1.84,0-2.724,0.268-4.598,0
		c0,0-5.486-1.761-9.201-1.916c-2.265-0.076-5.431-0.172-8.847,0.384c-1.952,0.317-2.653,1.532-4.952,1.149
		c2.336-0.613,5.69-2.611,9.553-3.065c2.334-0.274,6.016,0,6.016,0c1.132,0,3.575,1.149,7.432,1.149c3.502,0,6.368-0.154,7.783,0
		C137.504,131.334,138.775,128.267,142.104,128.267L142.104,128.267z"/>
	<path id="XMLID_158_" class="st1" d="M94.687,155.472c2.336,0,3.672-0.103,6.016,0c8.708,0.38,13.553,4.6,21.939,4.6
		c-0.92,0-4.813-0.039-6.016,0c-5.45,0.152-13.553-3.068-18.4-3.068H92.21c-4.21,0-11.039,2.529-13.446,2.299
		C80.18,159.074,87.575,155.472,94.687,155.472L94.687,155.472z"/>
	<path id="XMLID_157_" class="st1" d="M35.593,191.487v1.916c0-8.772-6.58-23.333-8.137-25.285
		C33.789,175.972,35.593,185.663,35.593,191.487L35.593,191.487z"/>
	<path id="XMLID_156_" class="st1" d="M64.256,187.658h5.661c0.212,0,5.521,1.61,6.37,1.914c0,0-6.473-1.017-10.616-0.766
		c-3.487,0.213-5.471,0.554-8.847,1.532C56.824,190.338,62.345,187.658,64.256,187.658L64.256,187.658z"/>
	<path id="XMLID_155_" class="st1" d="M110.782,113.13c-7.078,5.938-24.839,23.958-33.791,36.398
		c-9.377,13.028-15.038,22.224-15.038,22.224c-18.752,33.715-29.544,36.971-29.544,36.971c19.107-21.456,20.345-27.01,36.62-52.682
		c4.254-6.708,14.508-19.923,22.828-29.306c9.9-11.164,18.915-15.095,29.725-26.82c4.946-5.367,7.423-9.581,9.368-15.137
		c-0.53,3.832,1.489,4.866-7.43,15.9C121.006,103.822,116.545,108.294,110.782,113.13L110.782,113.13z"/>
</g>
<path id="XMLID_153_" class="st4" d="M168.543,5.651c0-2.303-1.905-4.17-4.251-4.17H5.731c-2.346,0-4.25,1.867-4.25,4.17v281.977
	c0,2.303,1.903,4.169,4.25,4.169h158.561c2.346,0,4.251-1.866,4.251-4.169V5.651z"/>
<path id="XMLID_111_" class="st5" d="M157.958,8.003H12.067c-2.16,0-3.912,1.777-3.912,3.97V280.42c0,2.193,1.752,3.972,3.912,3.972
	h145.891c2.16,0,3.91-1.778,3.91-3.972V11.973C161.868,9.781,160.118,8.003,157.958,8.003z M155.003,213.641
	c0,2.165-1.774,3.92-3.961,3.92H18.804c-2.188,0-3.961-1.755-3.961-3.92V73.922c0-2.165,1.774-3.92,3.961-3.92h132.238
	c2.188,0,3.961,1.755,3.961,3.92V213.641z"/>
<path id="XMLID_109_" class="st6" d="M30.884,34.822c-1.595,0.548-3.418,0.821-5.827,0.821c-6.511,0-9.636-4.624-9.636-11.104
	c0-5.629,1.953-9.766,8.92-9.766c2.604,0,4.818,0.486,6.25,0.852l0.293,4.776H30.07c-0.423-1.704-1.725-4.442-5.763-4.442
	c-5.241,0-5.664,5.203-5.664,8.336c0,3.925,0.912,9.979,8.041,9.979c2.181,0,3.353-0.456,4.2-0.761V34.822z"/>
<path id="XMLID_107_" class="st6" d="M32.479,34.731c1.758,0,2.832-0.213,2.832-2.495V18.18c0-2.282-1.074-2.495-2.832-2.495v-0.609
	h14.748l0.228,3.712H46.64c-0.39-1.856-1.465-2.526-3.776-2.526h-2.865c-1.693,0-1.79,0.335-1.79,2.556v5.325h4.199
	c2.181,0,2.963-0.457,2.963-2.556h0.684v6.298h-0.684c0-1.704-0.781-2.556-2.963-2.556h-4.199v6.267c0,2.373,0.162,2.556,1.79,2.556
	h3.125c2.507,0,3.516-0.731,4.004-2.829h0.814l-0.228,4.016H32.479V34.731z"/>
<path id="XMLID_104_" class="st6" d="M55.301,18.272c0-1.643,0.162-2.008,2.116-2.008c2.604,0,5.013,0.882,5.013,3.469
	c0,3.803-3.353,4.137-7.129,4.137V18.272z M49.571,35.34h8.595v-0.609c-1.791,0-2.865-0.213-2.865-2.495v-7.18h1.335l6.511,10.283
	h4.949v-0.609c-2.051,0-2.962-1.43-4.004-3.073l-4.298-6.815c2.312-0.182,5.698-1.217,5.698-5.111c0-3.803-3.776-4.655-7.293-4.655
	h-8.627v0.609c1.79,0,2.832,0.213,2.832,2.495v14.056c0,2.282-1.042,2.495-2.832,2.495V35.34z"/>
<path id="XMLID_102_" class="st6" d="M70.699,34.731c1.953,0,3.125-0.213,3.125-2.495V16.263h-1.986
	c-3.321,0-3.809,1.248-4.135,2.951H66.89l0.228-4.138h16.311l0.228,4.138h-0.814c-0.196-1.917-1.172-2.951-4.362-2.951h-1.758
	v15.973c0,2.282,1.172,2.495,3.125,2.495v0.609h-9.148V34.731z"/>
<path id="XMLID_100_" class="st6" d="M85.251,34.731c1.79,0,2.832-0.213,2.832-2.495V18.18c0-2.282-1.042-2.495-2.832-2.495v-0.609
	h8.562v0.609c-1.758,0-2.832,0.213-2.832,2.495v14.056c0,2.282,1.075,2.495,2.832,2.495v0.609h-8.562V34.731z"/>
<path id="XMLID_98_" class="st6" d="M93.911,34.731c1.759,0,2.832-0.213,2.832-2.495V18.18c0-2.282-1.073-2.495-2.832-2.495v-0.609
	h14.748l0.227,3.712h-0.813c-0.586-1.977-1.596-2.526-3.777-2.526h-2.865c-1.692,0-1.79,0.335-1.79,2.556v5.325h4.199
	c2.181,0,2.963-0.457,2.963-2.556h0.684v6.298h-0.684c0-1.704-0.782-2.556-2.963-2.556h-4.199v6.906
	c0,2.282,1.107,2.495,3.223,2.495v0.609h-8.952V34.731z"/>
<path id="XMLID_96_" class="st6" d="M110.514,34.731c1.791,0,2.833-0.213,2.833-2.495V18.18c0-2.282-1.042-2.495-2.833-2.495v-0.609
	h8.562v0.609c-1.757,0-2.831,0.213-2.831,2.495v14.056c0,2.282,1.075,2.495,2.831,2.495v0.609h-8.562V34.731z"/>
<path id="XMLID_94_" class="st6" d="M119.174,34.731c1.758,0,2.832-0.213,2.832-2.495V18.18c0-2.282-1.075-2.495-2.832-2.495v-0.609
	h14.748l0.227,3.712h-0.813c-0.391-1.856-1.465-2.526-3.777-2.526h-2.865c-1.692,0-1.79,0.335-1.79,2.556v5.325h4.2
	c2.181,0,2.963-0.457,2.963-2.556h0.683v6.298h-0.683c0-1.704-0.782-2.556-2.963-2.556h-4.2v6.267c0,2.373,0.162,2.556,1.79,2.556
	h3.126c2.506,0,3.516-0.731,4.004-2.829h0.814l-0.227,4.016h-15.237V34.731z"/>
<path id="XMLID_91_" class="st6" d="M142.093,18.819c0-2.373,0.259-2.556,1.887-2.556c6.186,0,7.912,3.378,7.912,8.975
	c0,6.115-2.312,8.914-7.912,8.914c-1.628,0-1.887-0.335-1.887-2.556V18.819z M136.363,35.34h7.618
	c5.111,0,11.135-1.065,11.135-10.101c0-9.067-5.73-10.162-11.135-10.162h-7.618v0.609c1.759,0,2.833,0.213,2.833,2.495v14.056
	c0,2.282-1.075,2.495-2.833,2.495V35.34z"/>
<path id="XMLID_88_" class="st6" d="M26.456,45.315l3.614,9.279h-7.26L26.456,45.315z M15.518,62.504h7.357v-0.609
	c-1.27,0-2.312-0.182-2.312-1.065c0-0.395,0.196-0.882,0.391-1.43l1.4-3.62h8.172l1.53,3.833c0.13,0.335,0.293,0.882,0.293,1.278
	c0,0.791-1.302,1.004-2.312,1.004v0.609h8.464v-0.609c-2.116,0-2.963-1.217-3.744-3.133l-6.772-16.824h-1.823l-6.739,16.581
	c-0.944,2.342-1.367,3.377-3.906,3.377V62.504z"/>
<path id="XMLID_85_" class="st6" d="M43.288,45.436c0-1.643,0.162-2.008,2.116-2.008c2.605,0,5.014,0.882,5.014,3.469
	c0,3.803-3.353,4.137-7.13,4.137V45.436z M37.558,62.504h8.595v-0.609c-1.791,0-2.865-0.213-2.865-2.495v-7.18h1.335l6.511,10.283
	h4.949v-0.609c-2.051,0-2.963-1.43-4.004-3.073l-4.297-6.815c2.311-0.182,5.697-1.217,5.697-5.111c0-3.803-3.776-4.655-7.293-4.655
	h-8.627v0.609c1.79,0,2.832,0.213,2.832,2.495v14.056c0,2.282-1.042,2.495-2.832,2.495V62.504z"/>
<path id="XMLID_81_" class="st6" d="M62.235,45.984c0-2.281,0.228-2.556,2.279-2.556c2.637,0,4.786,0.822,4.786,3.894
	c0,3.864-3.679,3.894-5.567,3.894h-1.498V45.984z M62.235,52.403h1.498c2.767,0,6.674,0.274,6.674,4.655
	c0,3.255-2.735,4.26-5.404,4.26c-2.735,0-2.767-0.274-2.767-2.556V52.403z M56.505,62.504h8.497c3.288,0,8.464-0.426,8.464-5.446
	c0-3.711-2.67-4.959-4.949-5.324v-0.061c1.53-0.457,3.841-1.491,3.841-4.564c0-4.868-5.339-4.868-7.846-4.868h-8.009v0.609
	c1.758,0,2.832,0.213,2.832,2.495v14.056c0,2.282-1.074,2.495-2.832,2.495V62.504z"/>
<path id="XMLID_78_" class="st6" d="M79.391,52.373c0-4.685,0.521-9.249,5.176-9.249c4.655,0,5.176,4.564,5.176,9.249
	c0,4.685-0.521,9.249-5.176,9.249C79.912,61.622,79.391,57.058,79.391,52.373z M84.567,62.808c6.478,0,8.4-4.533,8.4-10.435
	c0-5.933-1.922-10.435-8.4-10.435s-8.399,4.502-8.399,10.435C76.168,58.275,78.089,62.808,84.567,62.808z"/>
<path id="XMLID_75_" class="st6" d="M99.283,45.436c0-1.643,0.162-2.008,2.116-2.008c2.604,0,5.013,0.882,5.013,3.469
	c0,3.803-3.353,4.137-7.129,4.137V45.436z M93.553,62.504h8.594v-0.609c-1.791,0-2.864-0.213-2.864-2.495v-7.18h1.335l6.51,10.283
	h4.949v-0.609c-2.052,0-2.963-1.43-4.004-3.073l-4.298-6.815c2.312-0.182,5.698-1.217,5.698-5.111c0-3.803-3.776-4.655-7.293-4.655
	h-8.626v0.609c1.791,0,2.832,0.213,2.832,2.495v14.056c0,2.282-1.041,2.495-2.832,2.495V62.504z"/>
<path id="XMLID_73_" class="st6" d="M111.946,61.895c1.791,0,2.832-0.213,2.832-2.495V45.345c0-2.282-1.041-2.495-2.832-2.495
	v-0.609h8.562v0.609c-1.759,0-2.833,0.213-2.833,2.495v14.056c0,2.282,1.075,2.495,2.833,2.495v0.609h-8.562V61.895z"/>
<path id="XMLID_71_" class="st6" d="M134.898,46.623c-0.293-1.613-1.596-3.499-5.079-3.499c-2.181,0-4.102,1.308-4.102,3.316
	c0,2.708,3.875,3.59,6.707,5.142c2.572,1.399,4.297,2.646,4.297,5.537c0,3.864-3.582,5.689-8.041,5.689
	c-2.213,0-4.786-0.456-5.6-0.578l-0.227-4.29h0.813c0.262,1.613,1.791,3.499,5.274,3.499c2.865,0,4.721-1.734,4.721-3.833
	c0-3.286-5.404-4.29-8.431-6.45c-1.433-1.035-2.117-2.13-2.117-4.077c0-3.651,3.224-5.142,7.326-5.142
	c2.181,0,3.581,0.243,5.046,0.517l0.228,4.169H134.898z"/>
<path id="XMLID_69_" class="st6" d="M141.669,61.895c1.954,0,3.126-0.213,3.126-2.495V43.428h-1.986
	c-3.321,0-3.809,1.248-4.134,2.951h-0.815l0.228-4.138h16.31l0.228,4.138h-0.814c-0.195-1.917-1.172-2.951-4.362-2.951h-1.759
	v15.973c0,2.282,1.173,2.495,3.126,2.495v0.609h-9.149V61.895z"/>
<g id="XMLID_54_">
	<g id="XMLID_60_">
		<g id="XMLID_63_">
			<g id="XMLID_64_">
				<path id="XMLID_67_" class="st6" d="M57.644,237.201c0-5.379-0.513-6.075-5.446-6.575v-1.524h16.088v1.524
					c-4.993,0.5-5.445,1.196-5.445,6.575v28.079c0,5.378,0.452,6.076,5.445,6.515v1.524H52.198v-1.524
					c4.933-0.439,5.446-1.137,5.446-6.515V237.201z"/>
				<path id="XMLID_65_" class="st6" d="M69.818,261.438c1.007,3.479,3.825,10.561,10.641,10.561c4.772,0,7.528-3.357,7.528-8.514
					c0-5.007-3.372-7.936-7.768-10.486c-3.736-2.174-10.417-5.775-10.417-12.878c0-6.352,4.817-11.842,12.848-11.842
					c3.507,0,5.741,0.906,7.458,1.369c0.275,2.619,0.669,5.227,1.175,8.975l-1.726,0.344c-1.19-3.899-2.825-8.546-8.263-8.546
					c-4.419,0-6.626,3.57-6.626,7.464c0,4.609,3.172,7.093,7.562,9.641c4.145,2.368,10.745,5.747,10.745,13.769
					c0,7.514-5.735,12.844-13.679,12.85c-2.04-0.006-4.124-0.333-5.471-0.739c-1.531-0.435-2.884-0.991-4.009-1.44
					c-0.59-2.008-1.088-6.262-1.721-10.156L69.818,261.438z"/>
			</g>
		</g>
		<g id="XMLID_61_">
			<path id="XMLID_62_" class="st3" d="M104.223,265.124h3.962c-0.071-0.639-0.294-1.364-0.384-2.238
				c-0.118-1.129-0.38-3.196-0.38-3.196s-0.408-0.407-0.727-1.641c-0.199-0.777-0.133-0.767-0.866-1.602
				c-0.734-0.834-1.092-0.545-1.092-0.545l0.352-0.335l-0.725-0.605c0,0-0.152-0.144,1.162-0.63
				c0.594-0.219,1.102,0.115,1.145-0.974c0.041-1.081-0.897-1.063-2.376-2.28c-1.521-1.253-3.653-1.544-3.653-1.544
				s0.641-0.484,0.613-1.018c-0.047-0.865-1.742-1.909-1.795-2.007c-0.15-0.275,0.669-0.463,2.205-0.37
				c0.45,0.027,0.339-0.65,0.339-0.65s0.408-0.094,1.379,0.749c0.761,0.663,1.993,0.325,2.04,0.098
				c0.35-1.677-0.779-2.321-1.253-3.485c-0.474-1.165-1.038-2.104-1.038-2.104s0.51-0.204,0.944-0.754
				c0.433-0.55-0.373-1.844-0.373-1.844s0.315,0.243,0.427,0.248c0.112,0.005,0.285-0.253,0.285-0.253s0.277,0.552,1.023,1.076
				c0.755,0.53,1.115,0.643,1.585,0.342c0.914-0.586-0.734-2.643-0.32-3.306c0.159-0.26,0.172-0.697,0.172-0.697
				s0.478,0.937,1.154,0.741c0.678-0.197,0.468-1.633,0.678-2.403c0.184-0.677,0.272-0.325,0.32-0.499
				c0.187-0.658,0.187-0.658,0.187-0.658s0.167,0.005,0.455,0.783c0.156,0.426,0.139,0.117,0.416,0.666
				c0.187,0.369,0.453,0.997,0.706,1.422c0.348,0.588,0.851,0.63,0.851,0.63l-0.039,0.379l0.189,0.238c0,0-0.215,0.18-0.335,1.087
				c-0.09,0.684-0.245,1.006-0.144,1.232c0.079,0.174,1.431-0.142,1.431-0.142l0.03,0.42l0.371,0.284c0,0,0.021,0.879-0.538,1.343
				c-0.886,0.739-0.935,0.489-1.22,1.845c-0.287,1.357-0.663,2.404-0.568,2.524c0.094,0.118,1.062-0.541,1.66-0.97
				c0.598-0.428,1.493-0.938,1.493-0.938s-0.122,0.853,0.006,0.819c1.295-0.337,2.162-0.259,2.162-0.259s-1.141,2.496-1.162,2.799
				c-0.017,0.227,0.635,1.401,0.635,1.401s-1.69,0.49-2.288,0.919c-0.598,0.429-0.822,0.847-1.544,1.297
				c-0.71,0.441-1.008,1.048-1.068,2.347c-0.03,0.683,1.053,1.534,1.053,1.534s-0.034,0.226-1.111,0.746
				c-0.446,0.216-0.148,0.355-0.669,0.996c-0.309,0.383-0.298,0.728-0.976,0.982c-0.616,0.23-0.748,2.582-0.748,2.582
				s0.199,2.205,0.339,3.213c0.116,0.851,0.229,1.587,0.401,2.206h2.913l1.383,8.27h10.559l-8.487-46h-13.257l-9.866,46h10.535
				L104.223,265.124z"/>
		</g>
	</g>
	<path id="XMLID_55_" class="st6" d="M124.704,271.971c0-0.691,0.525-1.213,1.201-1.213c0.667,0,1.195,0.522,1.195,1.213
		c0,0.702-0.528,1.219-1.195,1.219C125.229,273.19,124.704,272.673,124.704,271.971z M125.905,273.434
		c0.804,0,1.491-0.617,1.491-1.463c0-0.837-0.686-1.456-1.491-1.456c-0.811,0-1.498,0.619-1.498,1.456
		C124.406,272.816,125.094,273.434,125.905,273.434z M125.593,272.086h0.297l0.448,0.73h0.288l-0.484-0.742
		c0.25-0.031,0.441-0.162,0.441-0.464c0-0.331-0.198-0.477-0.6-0.477h-0.648v1.683h0.257V272.086z M125.593,271.87v-0.521h0.351
		c0.18,0,0.371,0.039,0.371,0.247c0,0.259-0.195,0.274-0.414,0.274H125.593z"/>
</g>
<g id="XMLID_45_">
	<path id="XMLID_53_" class="st6" d="M50.748,133.633c0.139,1.367,0.34,2.577,0.572,3.705c1.812,6.221,4.443,13.932,4.443,20.051
		v-1.15c0-10.957-3.333-13.664-4.244-22.605c-0.608-5.95,0.23-9.43-0.708-15.327c-0.569-3.574-0.063-2.404-2.014-8.835
		c0.49,1.906,1.522,6.773,1.558,11.472C50.736,125.359,50.237,128.63,50.748,133.633z"/>
	<path id="XMLID_52_" class="st6" d="M48.796,109.471c-0.035-0.135-0.071-0.256-0.109-0.361
		C48.727,109.24,48.759,109.347,48.796,109.471z"/>
	<path id="XMLID_51_" class="st6" d="M84.22,114.382c0,0.046-0.16,0.946-0.486,2.302l-0.277,3.451c0,1.84-1.225,4.187-1.507,5.45
		c2.192-4.751,3.185-10.229,3.185-10.345v-10.344c0-1.494,1.486-7.588,1.769-8.429c-1.859,2.309-2.159,4.928-2.684,7.866V114.382z"
		/>
	<path id="XMLID_50_" class="st6" d="M68.28,187.658c0.165,0,3.401,0.97,5.237,1.547c1.626,0.189,2.771,0.367,2.771,0.367
		c-0.849-0.305-6.158-1.914-6.37-1.914H68.28z"/>
	<path id="XMLID_49_" class="st6" d="M115.55,160.06c0.369,0.017,0.728,0.021,1.077,0.012c0.271-0.01,0.683-0.014,1.162-0.016
		C116.961,160.054,116.144,160.054,115.55,160.06z"/>
	<path id="XMLID_48_" class="st6" d="M97.718,155.434c0.42,0.006,0.859,0.017,1.348,0.038c8.591,0.376,13.429,4.479,21.61,4.59
		c0.872,0.004,1.625,0.01,1.967,0.01c-8.386,0-13.231-4.22-21.939-4.6C99.543,155.421,98.629,155.421,97.718,155.434z"/>
	<path id="XMLID_47_" class="st6" d="M136.991,129.966c-2.84,1.312-7.051,2.9-11.388,2.9c-0.835,0-1.472,0.054-2.095,0.09
		c1.327,0.092,2.203-0.09,3.733-0.09c7.219,0,14.119-4.408,14.863-4.599C140.217,128.267,138.99,129.252,136.991,129.966z"/>
	<path id="XMLID_46_" class="st6" d="M110.782,113.13c5.763-4.837,10.224-9.309,12.738-12.452c8.918-11.035,6.9-12.069,7.43-15.9
		c-0.638,1.823-1.347,3.495-2.167,5.117c-0.647,2.123-2.345,5.148-6.9,10.783c-2.514,3.143-6.975,7.615-12.738,12.452
		c-7.078,5.938-24.839,23.958-33.791,36.398c-9.377,13.028-15.038,22.224-15.038,22.224c-12.511,22.493-21.473,31.422-26.056,34.879
		c-0.599,0.681-1.213,1.377-1.851,2.093c0,0,10.793-3.257,29.544-36.971c0,0,5.661-9.196,15.038-22.224
		C85.943,137.088,103.704,119.069,110.782,113.13z"/>
</g>
<g id="XMLID_41_">
	<path id="XMLID_42_" class="st5" d="M181.057,293.018h-1.388v-6.943h-2.695v-1.199h6.795v1.199h-2.712V293.018z M185.983,293.018
		h-1.276v-8.142h2.045l2.103,6.505l2.025-6.505h2.011v8.142h-1.274v-6.833l-2.139,6.833h-1.247l-2.247-6.943V293.018z"/>
</g>
</svg>
