<?xml version="1.0" encoding="utf-8"?>
<!-- Generator: Adobe Illustrator 19.0.0, SVG Export Plug-In . SVG Version: 6.00 Build 0)  -->
<svg version="1.1" id="Layer_1" xmlns="http://www.w3.org/2000/svg" xmlns:xlink="http://www.w3.org/1999/xlink" x="0px" y="0px"
	 viewBox="0 0 193.389 292.143" style="enable-background:new 0 0 193.389 292.143;" xml:space="preserve">
<style type="text/css">
	.st0{fill:#FFFFFF;}
	.st1{fill:#FFF8D7;}
	.st2{fill:#026937;}
	.st3{fill:none;stroke:#026937;stroke-width:2.9631;}
	.st4{fill:#FFE01E;}
	.st5{fill-rule:evenodd;clip-rule:evenodd;fill:#FFE01E;}
</style>
<path id="XMLID_113_" class="st0" d="M169.071,6.067c0-2.533-1.91-4.586-4.264-4.586H5.746c-2.355,0-4.264,2.053-4.264,4.586
	v280.008c0,2.535,1.91,4.586,4.264,4.586h159.061c2.355,0,4.264-2.052,4.264-4.586V6.067z"/>
<rect id="XMLID_112_" x="11.45" y="43.872" class="st1" width="145.411" height="169.686"/>
<path class="st2" d="M158.453,8.654H12.1c-2.167,0-3.923,1.955-3.923,4.367v265.129c0,2.413,1.757,4.367,3.923,4.367h146.353
	c2.167,0,3.922-1.954,3.922-4.367V13.02C162.376,10.608,160.62,8.654,158.453,8.654z M155.488,204.632
	c0,2.381-1.779,4.311-3.974,4.311H18.859c-2.195,0-3.973-1.93-3.973-4.311V50.974c0-2.381,1.779-4.311,3.973-4.311h132.656
	c2.195,0,3.974,1.93,3.974,4.311V204.632z"/>
<path id="XMLID_109_" class="st3" d="M169.071,6.067c0-2.533-1.91-4.586-4.264-4.586H5.746c-2.355,0-4.264,2.053-4.264,4.586
	v280.008c0,2.535,1.91,4.586,4.264,4.586h159.061c2.355,0,4.264-2.052,4.264-4.586V6.067z"/>
<g>
	<g>
		<g>
			<g>
				<path class="st4" d="M54.454,230.541c0-5.914-0.513-6.68-5.462-7.231v-1.676h16.139v1.676c-5.009,0.551-5.462,1.316-5.462,7.231
					v30.88c0,5.914,0.453,6.682,5.462,7.165v1.676H48.992v-1.676c4.949-0.483,5.462-1.251,5.462-7.165V230.541z"/>
				<path class="st4" d="M66.667,257.197c1.01,3.825,3.837,11.614,10.675,11.614c4.787,0,7.552-3.692,7.552-9.364
					c0-5.506-3.382-8.727-7.793-11.532c-3.747-2.39-10.45-6.351-10.45-14.162c0-6.985,4.833-13.023,12.89-13.023
					c3.518,0,5.758,0.997,7.482,1.505c0.274,2.88,0.67,5.749,1.178,9.87l-1.732,0.378c-1.194-4.287-2.834-9.399-8.288-9.399
					c-4.434,0-6.647,3.926-6.647,8.208c0,5.069,3.182,7.8,7.586,10.603c4.158,2.605,10.778,6.32,10.778,15.142
					c0,8.265-5.753,14.125-13.723,14.132c-2.045-0.007-4.136-0.366-5.488-0.812c-1.537-0.478-2.893-1.09-4.022-1.582
					c-0.591-2.208-1.092-6.887-1.726-11.17L66.667,257.197z"/>
			</g>
		</g>
		<g>
			<path id="XMLID_106_" class="st5" d="M101.182,261.251h3.973c-0.071-0.703-0.295-1.501-0.385-2.462
				c-0.118-1.242-0.381-3.515-0.381-3.515s-0.409-0.448-0.728-1.804c-0.201-0.854-0.135-0.843-0.87-1.762
				c-0.736-0.917-1.095-0.6-1.095-0.6l0.354-0.369l-0.728-0.665c0,0-0.153-0.159,1.166-0.693c0.596-0.24,1.106,0.126,1.149-1.071
				c0.041-1.188-0.899-1.169-2.383-2.507c-1.526-1.379-3.665-1.699-3.665-1.699s0.643-0.532,0.615-1.118
				c-0.046-0.952-1.747-2.101-1.801-2.208c-0.151-0.301,0.671-0.509,2.213-0.406c0.452,0.028,0.339-0.717,0.339-0.717
				s0.41-0.103,1.384,0.824c0.763,0.731,1.998,0.357,2.045,0.107c0.352-1.844-0.781-2.551-1.256-3.832
				c-0.476-1.281-1.041-2.313-1.041-2.313s0.512-0.224,0.947-0.831c0.435-0.605-0.374-2.028-0.374-2.028s0.316,0.268,0.428,0.273
				c0.112,0.007,0.286-0.278,0.286-0.278s0.279,0.607,1.026,1.183c0.757,0.583,1.12,0.707,1.59,0.376
				c0.917-0.644-0.736-2.906-0.321-3.636c0.16-0.285,0.172-0.766,0.172-0.766s0.48,1.029,1.159,0.814
				c0.679-0.217,0.468-1.797,0.679-2.644c0.186-0.744,0.273-0.357,0.322-0.548c0.186-0.724,0.186-0.724,0.186-0.724
				s0.169,0.007,0.456,0.861c0.157,0.469,0.14,0.128,0.417,0.733c0.187,0.406,0.454,1.097,0.708,1.564
				c0.349,0.646,0.854,0.693,0.854,0.693l-0.039,0.418l0.19,0.261c0,0-0.215,0.198-0.337,1.195c-0.09,0.752-0.245,1.106-0.144,1.354
				c0.08,0.191,1.435-0.156,1.435-0.156l0.031,0.462l0.371,0.313c0,0,0.022,0.966-0.539,1.477c-0.889,0.812-0.938,0.539-1.225,2.031
				c-0.288,1.491-0.665,2.644-0.57,2.775c0.095,0.131,1.066-0.595,1.666-1.067c0.6-0.469,1.496-1.032,1.496-1.032
				s-0.123,0.938,0.007,0.901c1.3-0.371,2.168-0.285,2.168-0.285s-1.145,2.745-1.166,3.078c-0.017,0.25,0.637,1.54,0.637,1.54
				s-1.695,0.539-2.296,1.011c-0.6,0.471-0.823,0.931-1.549,1.426c-0.712,0.485-1.01,1.153-1.07,2.581
				c-0.031,0.752,1.055,1.687,1.055,1.687s-0.034,0.25-1.113,0.822c-0.449,0.238-0.15,0.39-0.671,1.095
				c-0.311,0.422-0.299,0.801-0.979,1.081c-0.617,0.252-0.752,2.838-0.752,2.838s0.2,2.425,0.34,3.534
				c0.116,0.936,0.23,1.746,0.402,2.427h2.922l1.388,9.095h10.592l-8.514-50.59H99.06l-9.898,50.59h10.569L101.182,261.251z"/>
		</g>
	</g>
	<path class="st4" d="M121.726,268.78c0-0.761,0.529-1.335,1.206-1.335c0.669,0,1.197,0.574,1.197,1.335
		c0,0.773-0.528,1.34-1.197,1.34C122.255,270.12,121.726,269.553,121.726,268.78z M122.932,270.389c0.806,0,1.495-0.679,1.495-1.608
		c0-0.922-0.69-1.601-1.495-1.601c-0.814,0-1.503,0.679-1.503,1.601C121.429,269.709,122.118,270.389,122.932,270.389z
		 M122.619,268.907h0.297l0.451,0.803h0.289l-0.485-0.815c0.251-0.035,0.442-0.18,0.442-0.511c0-0.364-0.2-0.525-0.602-0.525h-0.65
		v1.851h0.258V268.907z M122.619,268.669v-0.572h0.353c0.18,0,0.371,0.042,0.371,0.271c0,0.285-0.196,0.301-0.414,0.301H122.619z"/>
</g>
<path class="st4" d="M14.954,37.941c1.764,0,2.842-0.234,2.842-2.744V19.739c0-2.51-1.078-2.744-2.842-2.744v-0.669h6.793
	l6.401,19.039h0.065l6.369-19.039h6.727v0.669c-1.796,0-2.841,0.234-2.841,2.744v15.458c0,2.51,1.045,2.744,2.841,2.744v0.669
	h-8.393v-0.669c1.764,0,2.841-0.234,2.841-2.744v-16.93h-0.065L28.899,38.61h-2.384l-6.793-20.343h-0.066v16.93
	c0,2.51,1.078,2.744,2.842,2.744v0.669h-7.544V37.941z"/>
<path class="st4" d="M46.404,37.941c1.764,0,2.841-0.234,2.841-2.744V19.739c0-2.51-1.077-2.744-2.841-2.744v-0.669h14.794
	l0.229,4.082H60.61c-0.392-2.041-1.47-2.777-3.788-2.777h-2.874c-1.698,0-1.796,0.368-1.796,2.811v5.855h4.213
	c2.188,0,2.972-0.502,2.972-2.81h0.686v6.926h-0.686c0-1.874-0.784-2.811-2.972-2.811h-4.213v6.893c0,2.61,0.164,2.811,1.796,2.811
	h3.135c2.515,0,3.527-0.804,4.017-3.112h0.817l-0.229,4.416H46.404V37.941z"/>
<path class="st4" d="M66.162,37.941c1.764,0,2.841-0.234,2.841-2.744V19.739c0-2.51-1.077-2.744-2.841-2.744v-0.669h6.793
	l6.401,19.039h0.066l6.369-19.039h6.728v0.669c-1.797,0-2.842,0.234-2.842,2.744v15.458c0,2.51,1.046,2.744,2.842,2.744v0.669
	h-8.393v-0.669c1.762,0,2.84-0.234,2.84-2.744v-16.93h-0.065L80.108,38.61h-2.385l-6.792-20.343h-0.066v16.93
	c0,2.51,1.078,2.744,2.841,2.744v0.669h-7.544V37.941z"/>
<path class="st4" d="M101.99,20.442c0-2.509,0.228-2.811,2.285-2.811c2.646,0,4.801,0.904,4.801,4.283
	c0,4.25-3.691,4.283-5.584,4.283h-1.502V20.442z M101.99,27.502h1.502c2.776,0,6.695,0.301,6.695,5.119
	c0,3.58-2.743,4.685-5.421,4.685c-2.743,0-2.775-0.302-2.775-2.811V27.502z M96.241,38.61h8.525c3.298,0,8.491-0.469,8.491-5.989
	c0-4.082-2.678-5.454-4.965-5.855v-0.067c1.535-0.502,3.853-1.64,3.853-5.019c0-5.353-5.355-5.353-7.87-5.353h-8.034v0.669
	c1.764,0,2.842,0.234,2.842,2.744v15.458c0,2.51-1.078,2.744-2.842,2.744V38.61z"/>
<path class="st4" d="M117.24,37.941c1.764,0,2.842-0.234,2.842-2.744V19.739c0-2.51-1.078-2.744-2.842-2.744v-0.669h14.794
	l0.229,4.082h-0.817c-0.392-2.041-1.47-2.777-3.789-2.777h-2.873c-1.699,0-1.796,0.368-1.796,2.811v5.855h4.214
	c2.188,0,2.971-0.502,2.971-2.81h0.686v6.926h-0.686c0-1.874-0.783-2.811-2.971-2.811h-4.214v6.893c0,2.61,0.163,2.811,1.796,2.811
	h3.136c2.514,0,3.526-0.804,4.017-3.112h0.815l-0.228,4.416H117.24V37.941z"/>
<path class="st4" d="M142.028,19.84c0-1.806,0.163-2.209,2.122-2.209c2.613,0,5.029,0.97,5.029,3.815c0,4.182-3.363,4.55-7.152,4.55
	V19.84z M136.28,38.61h8.622v-0.669c-1.796,0-2.874-0.234-2.874-2.744v-7.896h1.338l6.532,11.309h4.964v-0.669
	c-2.057,0-2.971-1.572-4.017-3.38l-4.31-7.495c2.317-0.201,5.715-1.338,5.715-5.621c0-4.182-3.789-5.12-7.315-5.12h-8.655v0.669
	c1.796,0,2.841,0.234,2.841,2.744v15.458c0,2.51-1.046,2.744-2.841,2.744V38.61z"/>
<path class="st2" d="M150.429,98.761c-15.342-39.033-56.951-57.184-92.934-40.54C21.511,74.864,4.779,119.999,20.122,159.033
	c15.343,39.033,56.95,57.183,92.934,40.54C149.04,182.93,165.773,137.794,150.429,98.761z M31.273,153.876
	c-12.717-32.354,1.152-69.764,30.977-83.559c29.826-13.795,64.311,1.249,77.029,33.602c12.717,32.353-1.151,69.762-30.976,83.557
	C78.477,201.272,43.99,186.228,31.273,153.876z"/>
<path class="st4" d="M31.48,165.451c0.4,0.103,0.736,0.379,1.009,0.827c0.285,0.468,0.394,0.921,0.329,1.36
	c-0.066,0.44-0.35,0.84-0.853,1.2c-0.594,0.425-1.086,0.588-1.475,0.492c-0.389-0.097-0.729-0.385-1.02-0.861
	c-0.282-0.464-0.388-0.917-0.318-1.354c0.071-0.439,0.374-0.85,0.911-1.233C30.607,165.491,31.08,165.348,31.48,165.451z
	 M27.45,165.245c-0.212,0.628-0.251,1.279-0.117,1.95c0.134,0.671,0.449,1.415,0.946,2.231c0.488,0.802,1.006,1.393,1.556,1.773
	c0.549,0.38,1.109,0.569,1.681,0.567c0.572,0,1.171-0.224,1.796-0.672c0.859-0.615,1.329-1.419,1.408-2.411
	c0.08-0.992-0.246-2.091-0.978-3.296c-0.714-1.174-1.515-1.916-2.401-2.227c-0.885-0.31-1.764-0.154-2.635,0.469
	C28.081,164.079,27.663,164.617,27.45,165.245z"/>
<path class="st4" d="M36.914,170.438l4.043,4.995l-1.035,0.985l-2.408-2.973l-0.841,0.801l2.056,2.539l-0.97,0.924l-2.056-2.539
	l-1.965,1.872l-1.636-2.02L36.914,170.438z"/>
<path class="st4" d="M44.678,184.71l2.09-1.405l-0.706,2.553L44.678,184.71z M45.309,188.573l2.057,1.706l1.515-7.487l-2.161-1.792
	l-6.273,3.541l2.009,1.666l0.954-0.643l2.22,1.843L45.309,188.573z"/>
<path class="st4" d="M53.633,187.818l0.956,0.58c0.396,0.24,0.64,0.457,0.73,0.649c0.09,0.191,0.084,0.386-0.017,0.584
	c-0.07,0.135-0.177,0.226-0.321,0.273c-0.144,0.047-0.294,0.04-0.451-0.023c-0.313-0.118-0.52-0.207-0.619-0.266l-0.917-0.558
	L53.633,187.818z M51.136,192.658l1.269-2.46l0.191,0.116c0.197,0.12,0.35,0.274,0.458,0.461c0.077,0.142,0.127,0.377,0.151,0.705
	l0.205,2.56l2.441,1.482l-0.157-2.39c-0.004-0.121-0.039-0.31-0.106-0.565c-0.066-0.254-0.125-0.433-0.178-0.533
	c-0.08-0.144-0.229-0.333-0.446-0.565c0.354,0.134,0.649,0.209,0.885,0.225c0.369,0.025,0.699-0.035,0.992-0.18
	c0.292-0.142,0.526-0.383,0.7-0.721c0.199-0.385,0.259-0.779,0.182-1.179c-0.077-0.4-0.267-0.756-0.57-1.069
	c-0.302-0.313-0.787-0.671-1.455-1.076l-3.6-2.186l-3.127,6.061L51.136,192.658z"/>
<path class="st4" d="M59.837,189.822l4.32,1.8c0.72,0.299,1.218,0.684,1.494,1.153c0.276,0.468,0.334,0.93,0.173,1.384
	c-0.135,0.383-0.389,0.651-0.76,0.808c-0.249,0.107-0.569,0.14-0.961,0.1c0.501,0.336,0.829,0.693,0.987,1.074
	c0.157,0.38,0.162,0.777,0.016,1.193c-0.119,0.337-0.317,0.605-0.593,0.798c-0.276,0.196-0.598,0.307-0.965,0.331
	c-0.229,0.021-0.548-0.029-0.954-0.147c-0.54-0.162-0.895-0.278-1.064-0.348l-3.987-1.662L59.837,189.822z M61.272,193.319l1,0.417
	c0.359,0.149,0.628,0.2,0.806,0.151s0.303-0.174,0.374-0.375c0.066-0.185,0.047-0.362-0.056-0.525
	c-0.103-0.165-0.329-0.32-0.677-0.464l-1.016-0.422L61.272,193.319z M60.365,195.881l1.179,0.493c0.398,0.166,0.7,0.219,0.907,0.163
	c0.207-0.056,0.348-0.188,0.422-0.397c0.068-0.191,0.042-0.38-0.078-0.565c-0.121-0.184-0.383-0.361-0.788-0.53l-1.174-0.488
	L60.365,195.881z"/>
<path class="st4" d="M70.275,195.678c0.354-0.226,0.772-0.282,1.256-0.167c0.505,0.121,0.873,0.364,1.109,0.729
	c0.235,0.364,0.287,0.866,0.157,1.504c-0.154,0.754-0.402,1.243-0.743,1.467c-0.342,0.223-0.77,0.275-1.286,0.151
	c-0.501-0.121-0.867-0.364-1.097-0.732c-0.23-0.368-0.275-0.892-0.137-1.572C69.674,196.366,69.922,195.906,70.275,195.678z
	 M67.249,198.572c0.251,0.613,0.64,1.108,1.167,1.488c0.527,0.383,1.23,0.677,2.11,0.889c0.866,0.208,1.617,0.24,2.255,0.098
	c0.637-0.14,1.161-0.427,1.571-0.861c0.41-0.432,0.696-1.045,0.858-1.839c0.223-1.09,0.044-2.021-0.535-2.794
	c-0.579-0.774-1.518-1.316-2.816-1.628c-1.267-0.305-2.317-0.232-3.153,0.214c-0.835,0.446-1.366,1.221-1.591,2.325
	C66.954,197.258,66.998,197.96,67.249,198.572z"/>
<path class="st4" d="M79.776,196.777l1.092,0.083c0.454,0.034,0.76,0.118,0.917,0.249c0.157,0.132,0.228,0.31,0.213,0.537
	c-0.011,0.154-0.071,0.287-0.183,0.396c-0.112,0.109-0.252,0.171-0.417,0.185c-0.329,0.04-0.551,0.054-0.665,0.046l-1.048-0.081
	L79.776,196.777z M79.418,202.308l0.183-2.812l0.217,0.016c0.226,0.019,0.424,0.086,0.596,0.205
	c0.125,0.093,0.263,0.282,0.413,0.567l1.191,2.222l2.792,0.212l-1.082-2.089c-0.051-0.107-0.157-0.261-0.316-0.462
	c-0.16-0.201-0.284-0.334-0.37-0.399c-0.129-0.093-0.338-0.196-0.626-0.306c0.374-0.042,0.67-0.112,0.889-0.205
	c0.344-0.149,0.62-0.355,0.828-0.621c0.208-0.264,0.325-0.591,0.349-0.976c0.03-0.441-0.07-0.825-0.297-1.151
	c-0.228-0.327-0.539-0.56-0.936-0.705c-0.396-0.142-0.975-0.243-1.738-0.301l-4.115-0.314l-0.449,6.928L79.418,202.308z"/>
<path class="st4" d="M86.354,195.629l2.476-0.099l0.237,6.942l-2.477,0.098L86.354,195.629z"/>
<path class="st4" d="M96.656,198.674l2.222,0.228c-0.073,0.547-0.241,1.021-0.505,1.42c-0.263,0.399-0.612,0.723-1.049,0.976
	c-0.435,0.25-1.009,0.432-1.719,0.544c-0.863,0.138-1.581,0.142-2.156,0.012c-0.577-0.128-1.099-0.434-1.57-0.917
	c-0.47-0.483-0.763-1.151-0.878-2c-0.154-1.134,0.079-2.063,0.694-2.784c0.616-0.721,1.564-1.183,2.842-1.386
	c0.999-0.159,1.809-0.109,2.429,0.149c0.62,0.259,1.117,0.728,1.493,1.41l-2.107,0.757c-0.104-0.197-0.205-0.338-0.301-0.421
	c-0.159-0.138-0.344-0.235-0.555-0.289c-0.211-0.056-0.44-0.065-0.685-0.026c-0.558,0.089-0.96,0.35-1.205,0.782
	c-0.185,0.324-0.237,0.792-0.155,1.405c0.103,0.763,0.308,1.264,0.613,1.502s0.7,0.317,1.184,0.24
	c0.47-0.075,0.81-0.245,1.019-0.511C96.478,199.498,96.607,199.134,96.656,198.674z"/>
<path class="st4" d="M104.508,192.334l2.355-0.774l1.106,3.958c0.109,0.392,0.142,0.787,0.099,1.182
	c-0.044,0.396-0.18,0.773-0.409,1.132c-0.228,0.359-0.493,0.645-0.793,0.86c-0.418,0.299-0.949,0.553-1.593,0.762
	c-0.372,0.124-0.784,0.234-1.237,0.334c-0.452,0.098-0.846,0.131-1.178,0.093c-0.332-0.037-0.657-0.138-0.971-0.306
	c-0.314-0.166-0.553-0.367-0.718-0.602c-0.264-0.375-0.441-0.725-0.531-1.049l-1.105-3.958l2.356-0.774l1.13,4.047
	c0.101,0.362,0.295,0.607,0.583,0.734c0.289,0.127,0.639,0.124,1.05-0.011c0.409-0.135,0.7-0.341,0.876-0.619
	c0.175-0.278,0.213-0.6,0.11-0.964L104.508,192.334z"/>
<path class="st4" d="M108.515,190.804l2.251-1.127l2.028,4.764l3.499-1.754l0.658,1.542l-5.751,2.882L108.515,190.804z"/>
<path class="st4" d="M114.432,187.852l6.418-4.292l0.83,1.462l-2.154,1.441l2.529,4.45l-2.11,1.411l-2.53-4.451l-2.154,1.441
	L114.432,187.852z"/>
<path class="st4" d="M125.855,179.167l1.89-1.711l2.441,3.178c0.241,0.315,0.413,0.664,0.516,1.047
	c0.101,0.383,0.112,0.787,0.032,1.214c-0.082,0.428-0.222,0.804-0.422,1.128c-0.278,0.452-0.676,0.911-1.192,1.378
	c-0.299,0.27-0.639,0.546-1.02,0.829c-0.381,0.284-0.732,0.478-1.051,0.586c-0.32,0.107-0.655,0.149-1.004,0.13
	c-0.35-0.02-0.642-0.104-0.878-0.251c-0.378-0.233-0.667-0.481-0.867-0.74l-2.44-3.178l1.89-1.71l2.496,3.249
	c0.223,0.289,0.491,0.433,0.801,0.428c0.312-0.005,0.633-0.157,0.963-0.455c0.327-0.295,0.522-0.609,0.584-0.939
	c0.06-0.329-0.02-0.642-0.246-0.935L125.855,179.167z"/>
<path class="st4" d="M131.648,175l0.729-0.886c0.302-0.368,0.551-0.579,0.742-0.633c0.193-0.054,0.367-0.005,0.522,0.145
	c0.107,0.104,0.166,0.237,0.176,0.399c0.011,0.163-0.029,0.321-0.12,0.473c-0.173,0.307-0.299,0.505-0.374,0.597l-0.699,0.851
	L131.648,175z M135.46,178.696l-1.939-1.879l0.146-0.177c0.151-0.182,0.323-0.31,0.514-0.385c0.145-0.05,0.368-0.052,0.667-0.007
	l2.347,0.339l1.865-2.263l-2.185-0.352c-0.11-0.023-0.287-0.026-0.53-0.012c-0.244,0.015-0.417,0.04-0.519,0.072
	c-0.146,0.054-0.349,0.17-0.606,0.349c0.198-0.347,0.329-0.642,0.395-0.888c0.103-0.385,0.12-0.747,0.056-1.088
	c-0.067-0.341-0.232-0.641-0.498-0.898c-0.304-0.294-0.644-0.443-1.021-0.449s-0.738,0.118-1.085,0.37
	c-0.348,0.252-0.776,0.688-1.286,1.307l-2.75,3.336l4.774,4.629L135.46,178.696z"/>
<path class="st4" d="M134.784,168.863l3.699-5.966l1.127,0.824l-2.315,3.733l0.857,0.624l2.153-3.471l1.084,0.794l-2.152,3.471
	l1.043,0.76l2.382-3.843l1.2,0.875l-3.765,6.074L134.784,168.863z"/>
<path class="st4" d="M19.065,111.916l0.613-2.605l6.204,1.719l-0.613,2.605L19.065,111.916z"/>
<path class="st4" d="M20.392,106.339l0.827-2.336l4.369-1.661l-3.296-1.372l0.839-2.371l5.978,2.489l-0.839,2.371l-4.345,1.651
	l3.278,1.364l-0.833,2.354L20.392,106.339z"/>
<path class="st4" d="M24.085,96.401l3.691-7.131l1.381,0.841l-1.239,2.394l4.203,2.56l-1.214,2.345l-4.203-2.56l-1.239,2.393
	L24.085,96.401z"/>
<path class="st4" d="M29.005,87.301l3.992-5.739l1.085,0.889l-2.498,3.592l0.824,0.675l2.323-3.339l1.044,0.855l-2.322,3.339
	l1.003,0.821l2.571-3.696l1.154,0.945l-4.064,5.843L29.005,87.301z"/>
<path class="st4" d="M39.243,84.32l-4.527-4.911l2.918-3.165c0.541-0.586,0.991-0.995,1.35-1.226
	c0.36-0.231,0.727-0.332,1.103-0.304c0.376,0.028,0.708,0.198,0.996,0.51c0.252,0.274,0.402,0.583,0.45,0.927
	c0.048,0.344,0.011,0.706-0.111,1.084c-0.078,0.242-0.225,0.529-0.44,0.862c0.266-0.164,0.473-0.268,0.622-0.312
	c0.103-0.027,0.277-0.041,0.522-0.041s0.421,0.015,0.529,0.043l2.163,0.485l-1.978,2.146l-2.327-0.481
	c-0.297-0.064-0.519-0.076-0.665-0.034c-0.196,0.062-0.374,0.179-0.534,0.352l-0.155,0.168l1.838,1.994L39.243,84.32z
	 M38.306,79.501l0.743-0.806c0.08-0.087,0.215-0.278,0.405-0.574c0.098-0.146,0.146-0.3,0.144-0.464
	c-0.003-0.163-0.054-0.299-0.156-0.409c-0.147-0.16-0.319-0.219-0.513-0.177c-0.195,0.043-0.452,0.238-0.774,0.586l-0.774,0.84
	L38.306,79.501z"/>
<path class="st4" d="M41.813,72.001l1.855-1.488l4.507,1.149l-2.099-3.08l1.883-1.509l3.806,5.585l-1.882,1.509L45.4,73.025
	l2.088,3.063l-1.869,1.498L41.813,72.001z"/>
<path class="st4" d="M54.458,67.967l-0.309-2.646l1.847,1.759L54.458,67.967z M57.958,68.95l2.285-1.319l-5.646-4.609l-2.401,1.386
	l0.358,7.661l2.232-1.288l-0.141-1.208l2.468-1.424L57.958,68.95z"/>
<path class="st4" d="M57.742,61.295l7.054-2.886l0.559,1.607l-2.368,0.969l1.701,4.892l-2.319,0.949l-1.701-4.892l-2.367,0.969
	L57.742,61.295z"/>
<path class="st4" d="M66.886,57.84l2.399-0.677l1.612,6.722l-2.399,0.677L66.886,57.84z"/>
<path class="st4" d="M74.851,57.966c0.258-0.347,0.633-0.558,1.123-0.632c0.511-0.078,0.936,0.011,1.273,0.263
	c0.337,0.253,0.548,0.704,0.631,1.351c0.098,0.764,0.023,1.317-0.225,1.657c-0.249,0.339-0.634,0.549-1.156,0.628
	c-0.508,0.077-0.93-0.013-1.264-0.271c-0.334-0.258-0.545-0.732-0.634-1.422C74.509,58.837,74.593,58.313,74.851,57.966z
	 M72.946,61.822c0.432,0.478,0.956,0.796,1.572,0.954c0.616,0.158,1.371,0.169,2.263,0.034c0.878-0.133,1.593-0.386,2.145-0.76
	c0.551-0.374,0.95-0.841,1.195-1.402c0.245-0.561,0.316-1.244,0.213-2.049c-0.142-1.105-0.609-1.911-1.401-2.416
	c-0.791-0.505-1.845-0.659-3.163-0.459c-1.285,0.194-2.247,0.659-2.886,1.392c-0.639,0.734-0.887,1.661-0.743,2.782
	C72.247,60.703,72.514,61.345,72.946,61.822z"/>
<path class="st4" d="M82.469,55.07l2.306,0.037l2.941,3.877l0.053-3.829l2.34,0.037l-0.095,6.945l-2.34-0.037l-2.925-3.857
	l-0.053,3.809l-2.323-0.037L82.469,55.07z"/>
<path class="st4" d="M96.895,62.08l-2.758-0.492l-0.564,1.054l-2.496-0.446l4.002-6.325l2.683,0.479l1.91,7.381l-2.555-0.456
	L96.895,62.08z M96.603,60.495l-0.484-2.614l-1.234,2.307L96.603,60.495z"/>
<path class="st4" d="M102.545,57.454l2.369,0.791l-1.424,5.014l3.686,1.231l-0.462,1.624l-6.053-2.022L102.545,57.454z"/>
<path class="st4" d="M112.369,66.186l2.13,1.103c-0.101,0.317-0.121,0.592-0.061,0.824c0.099,0.376,0.354,0.686,0.765,0.927
	c0.308,0.18,0.577,0.256,0.805,0.227c0.23-0.029,0.386-0.127,0.469-0.293c0.077-0.156,0.07-0.342-0.025-0.559
	c-0.095-0.217-0.406-0.552-0.933-1.005c-0.858-0.747-1.415-1.394-1.666-1.941c-0.257-0.545-0.266-1.057-0.027-1.536
	c0.155-0.312,0.407-0.546,0.755-0.702c0.35-0.156,0.775-0.19,1.274-0.103c0.501,0.088,1.118,0.347,1.85,0.777
	c0.899,0.528,1.512,1.075,1.84,1.643c0.327,0.567,0.378,1.192,0.153,1.876l-2.111-1.105c0.082-0.306,0.069-0.573-0.043-0.8
	c-0.11-0.227-0.318-0.431-0.623-0.61c-0.251-0.148-0.464-0.211-0.638-0.193c-0.173,0.019-0.293,0.095-0.359,0.226
	c-0.047,0.097-0.041,0.216,0.025,0.358c0.061,0.139,0.266,0.356,0.616,0.651c0.861,0.735,1.451,1.314,1.771,1.737
	c0.321,0.423,0.507,0.824,0.559,1.203c0.054,0.379-0.003,0.735-0.17,1.068c-0.196,0.392-0.5,0.68-0.913,0.863
	c-0.414,0.183-0.888,0.229-1.419,0.136c-0.531-0.093-1.138-0.339-1.818-0.738c-1.195-0.702-1.924-1.387-2.184-2.056
	C112.13,67.496,112.121,66.836,112.369,66.186z"/>
<path class="st4" d="M123.837,70.513c0.409-0.05,0.811,0.085,1.209,0.406c0.413,0.335,0.658,0.721,0.734,1.158
	c0.076,0.438-0.066,0.918-0.426,1.442c-0.426,0.619-0.837,0.955-1.233,1.007c-0.397,0.053-0.807-0.093-1.229-0.435
	c-0.412-0.333-0.653-0.718-0.724-1.156c-0.07-0.438,0.086-0.936,0.47-1.495C123.03,70.873,123.429,70.564,123.837,70.513z
	 M119.983,71.805c-0.002,0.67,0.164,1.295,0.501,1.878c0.336,0.582,0.865,1.165,1.588,1.75c0.71,0.575,1.383,0.94,2.018,1.094
	c0.635,0.155,1.221,0.126,1.759-0.086c0.537-0.212,1.031-0.644,1.478-1.295c0.615-0.894,0.806-1.823,0.569-2.786
	c-0.235-0.963-0.886-1.876-1.951-2.738c-1.04-0.841-2.025-1.245-2.956-1.21c-0.93,0.034-1.706,0.505-2.33,1.413
	C120.211,70.475,119.985,71.135,119.983,71.805z"/>
<path class="st4" d="M132.163,81.22l1.151,2.074c-0.45,0.261-0.9,0.395-1.352,0.403c-0.453,0.008-0.9-0.104-1.346-0.336
	c-0.445-0.232-0.921-0.624-1.426-1.177c-0.613-0.671-1.044-1.296-1.289-1.875c-0.245-0.579-0.329-1.218-0.25-1.915
	c0.077-0.698,0.398-1.349,0.962-1.954c0.75-0.808,1.575-1.156,2.477-1.047c0.901,0.109,1.805,0.662,2.715,1.657
	c0.712,0.778,1.155,1.515,1.332,2.208c0.176,0.694,0.124,1.407-0.159,2.14l-1.812-1.389c0.084-0.208,0.129-0.38,0.133-0.513
	c0.008-0.22-0.03-0.439-0.114-0.656c-0.085-0.217-0.214-0.422-0.389-0.613c-0.397-0.434-0.828-0.63-1.295-0.586
	c-0.351,0.03-0.728,0.264-1.134,0.699c-0.505,0.544-0.755,1.019-0.751,1.427c0.005,0.408,0.181,0.8,0.525,1.177
	c0.334,0.366,0.663,0.561,0.984,0.585C131.447,81.553,131.793,81.45,132.163,81.22z"/>
<path class="st4" d="M137.754,81.948l1.542,2.105l-5.012,4.322l-1.542-2.105L137.754,81.948z"/>
<path class="st4" d="M140.97,86.402l3.557,6.067l-1.149,0.791l-2.225-3.797l-0.871,0.601l2.068,3.529l-1.104,0.761l-2.068-3.529
	l-1.061,0.732l2.29,3.908l-1.22,0.841l-3.62-6.177L140.97,86.402z"/>
<path class="st4" d="M145.507,94.363l3.152,7.429l-1.438,0.718l-1.057-2.493l-4.378,2.186l-1.037-2.443l4.378-2.185l-1.056-2.493
	L145.507,94.363z"/>
<path class="st4" d="M149.203,103.227l0.786,2.851l-1.594,2.35l2.522,1.015l0.781,2.836l-4.457-2.082l-2.57,0.834l-0.71-2.576
	l2.57-0.834L149.203,103.227z"/>
<path id="XMLID_42_" class="st2" d="M91.52,68.939c1.512,0.448,4.445,2.223,4.858,4.051c0.084,0.386,0.364,1.112-0.099,1.112
	c0,0.099,0,0.197,0,0.286c-0.445,0-1.586-0.215-1.586,0.287c-0.09,0-0.174,0-0.265,0c0,0.188,0,0.385,0,0.574
	c0.265,0,0.529,0,0.794,0c0-0.099,0-0.188,0-0.287c3.494-0.887,5.964,0.162,7.518,3.666c0.273,0.439,0.547,0.887,0.809,1.326
	c-0.041,0.538-0.082,1.075-0.131,1.604c0.331,0.099,0.794,0.09,0.794,0.574c0.09,0,0.181,0,0.263,0c0,0.377,0.084,0.287-0.263,0.287
	c-0.381,0.753-0.794,1.371-0.893,2.312c-0.125,1.093,0.372,1.9,0.437,2.858c0.049,0.816-0.288,1.336-0.428,2.035
	c-0.314,1.479-0.148,3.406-2.025,3.406c0-0.286,0-0.574,0-0.861c0.57-0.941,0.198-2.294-1.059-2.294
	c-0.76-0.099-3.436-0.331-3.436,0.861c1.414,1.192,1.132,3.28,1.297,5.162c0.024,0.376-0.075,0.287,0.288,0.287
	c0,0.099,0,0.197,0,0.287c0.09,0,0.183,0,0.265,0c0-0.188,0-0.376,0-0.574c0.818-1.102,1.743-1.147,3.174-1.147
	c0.818-0.385,1.594,0.287,2.38,0.287c0-0.099,0-0.188,0-0.287c3.064-1.667,1.056-2.223,1.056-4.589c0.09,0,0.183,0,0.265,0
	c0.297-0.224,3.436-1.837,3.436-0.861c0.497,1.613-0.495,2.626-0.643,4.033c-0.09,0.771,0.116,3.424,0.116,3.137
	c0.09,0,0.181,0,0.265,0c0.338-0.923,2.106-6.023,2.642-6.023c0,0.099,0,0.197,0,0.287c0.092,0.286,0.183,0.574,0.265,0.861
	c0.09,0,0.183,0,0.265,0c0.265-0.861,0.529-1.721,0.794-2.581c0.265,0,0.529,0,0.792,0c0.596,1.138,0.934,2.007,1.059,3.441
	c0.09,0,0.181,0,0.265,0c0,0.099,0,0.197,0,0.287c0.09,0,0.181,0,0.265,0c0.131-0.547,0.445-2.295,1.056-2.295
	c0-0.188,0-0.376,0-0.574c-0.445,0-1.586,0.206-1.586-0.287c-0.09,0-0.174,0-0.265,0c-0.09-1.022-0.529-1.954-0.529-2.868
	c-0.652,0.081-3.436,1.748-3.436,1.147c-0.09,0-0.174,0-0.265,0c0.09-0.574,0.181-1.147,0.265-1.721c-0.09,0-0.174,0-0.265,0
	c0,0.098,0,0.197,0,0.287c-0.09,0-0.174,0-0.265,0c-0.826,1.12-1.513,1.568-2.909,1.38c-1.502-0.215-3.163-1.658-2.586-3.531
	c0.331-0.637,0.663-1.273,0.983-1.918c0.116-1.219,0.232-2.429,0.349-3.648c0.265-0.672,2.313-2.204,2.313-1.174
	c0.09,0,0.181,0,0.265,0c-0.058,0.86-0.207,3.728,0.792,3.728c0,0.099,0,0.197,0,0.286c0.884-1.111,0.893-2.438,2.19-3.316
	c0.305-0.215,0.189,0.009,0.189-0.412c2.562,1.336,5.065,1.766,5.652,5.477c-0.017,0.941-0.032,1.891-0.058,2.832
	c0.067,0.592,0.396,1.157,1.016,1.157c0.695-1.864,2.702-2.178,4.131-1.013c0.331,0.269,0.762,1.013,1.157,1.013
	c-0.215,1.416-0.026,2.671,0.306,3.997c0.174,0.699,0.579,1.363,0.372,2.169c-0.884,3.397-6.668,1.748-7.247,5.942
	c-0.215,1.533,1.28,1.829,1.28,3.092c0.703-0.099,1.414-0.188,2.115-0.286c0.521-0.502,1.588-1.13,1.588-2.008
	c0.321,0.224,0.652,0.448,0.975,0.672c0.372,0.323,0.701,0.654,1.19,0.744c0.529,0.089,1.074,0,1.437-0.385
	c0.437-0.484,0.843-1.13,1.47-1.219c0.835-0.134,1.422,0.592,2.115,0.869c2.231,0.861,3.653,0.314,4.843,2.832
	c0.14,0.305,0.387,0.816,0.148,1.192c-0.331,0.493-0.835,0.17-1.338,0.17c0,0.099,0,0.197,0,0.287c-0.09,0-0.174,0-0.265,0
	c-0.075,1.308-0.14,2.616-0.215,3.916c0.413,1.792,3.223,1.434,3.744,3.127c0.826,2.689-5.289,8.344-7.642,3.496
	c-0.183-0.368-0.2-0.789-0.645-0.789c0,0.099,0,0.197,0,0.287c-0.314,0.475-0.602,1.721-1.321,1.721c0-0.099,0-0.188,0-0.287
	c-0.093,0-0.174,0-0.265,0c0-0.86,0-1.721,0-2.581c-0.372,0-0.529-0.188-0.529,0.286c-0.288,0.35-1.594,2.868-0.794,2.868
	c0,0.099,0,0.197,0,0.287c1.332,0,2.958-0.197,4.073,0.341c1.175,0.555,3.348,4.669,2.496,6.022c-0.818,1.273-2.04,1.255-3.09,2.017
	c-0.529,0.376-0.917,1.658-1.627,1.658c0,0.376-0.093,0.286,0.263,0.286c0.232,0.198,0.794,0.816,0.794,0.287
	c0.529-0.197,1.065-0.394,1.594-0.6c1.117-0.045,3.066,1.326,3.156,2.626c0.058,0.941-0.652,1.443-0.652,2.277
	c0.163,0.493,0.329,0.986,0.495,1.479c0.082,0.332,0.372,0.816-0.099,0.816c0,0.099,0,0.197,0,0.286
	c-1.536,0.045-6.502,1.138-4.073,3.531c0.338,0.333,0.899,0.771,1.429,0.771c0.116,0.619,0.297,3.154-0.529,3.154
	c0,0.394-0.14,0.574,0.265,0.574c0.192,0.439,1.629,2.868,1.85,2.868c-1.289,2.392-3.296,0.779-4.8-0.224
	c-1.411-0.95-3.593-1.004-3.468-3.496c0.006-0.341,0.222-0.581-0.192-0.581c-0.792-1.256-1.932-0.861-3.171-0.861
	c-0.093,0.475-0.174,0.959-0.265,1.433c1.173-0.089,3.313-0.376,2.801,1.596c-0.323,1.218-2.272,0.852-3.034,1.622
	c-0.387,0.376-0.478,1.093-0.602,1.641c-0.387,1.666-1.586,2.473-3.156,2.679c-0.437,0.054-1.297,0.215-1.297-0.369
	c-0.166-0.268-0.486-0.572,0-0.572c0.198-0.486,2.173-2.581,1.588-2.581c0-0.099,0-0.189,0-0.287c-0.174,0-0.349,0-0.529,0
	c0,0.098,0,0.196,0,0.287c-1.082,1.253-2.106,4.087-4.239,2.714c-1.108-0.707,0.247-3.863,1.33-3.863c0-0.483-0.198-1.72,0.265-1.72
	c0-0.098,0-0.189,0-0.287c0.529,0.189,1.059,0.385,1.586,0.574c0,0.376-0.09,0.287,0.265,0.287c0-0.099,0-0.189,0-0.287
	c0.215-0.377,1.082-2.294,0.529-2.294c-1.231-0.385-2.461-0.763-3.701-1.148c-0.092-0.474-0.372-1.72,0.263-1.72
	c0.736-0.538,2.117-0.654,2.117-2.008c0.09-0.717-1.521-3.155-2.117-3.155c-0.355,0-0.701,0-1.056,0c0.032-1.299,0-2.465,0-3.728
	c-1.231,0.26-2.461,0.529-3.701,0.788c-0.835,0.108-2.984-2.178-3.098,0.09c-0.099,1.729,3.526,3.773,4.792,4.194
	c1.562,0.511,3.322-0.699,3.991,1.56c0.099,0.35,0.28,0.538-0.133,0.538c-1.883,1.353-4.783,3.961-2.502,6.435
	c0.469,0.511,0.899,1.747,0.007,2.017c-1.196,0.341-2.048-1.139-2.197-2.161c-0.058-0.385,0.075-0.556-0.331-0.556
	c-0.585-0.341-1.362-0.573-2.115-0.573c0,0.188,0,0.386,0,0.573c0.133,0.896-0.024,1.963-0.884,2.223
	c-1.635,0.484-2.717-1.497-4.402-1.46c-2.115,0.035-5.099,2.465-6.866,3.557c-1.239,0.565-2.479,1.13-3.727,1.685
	c-0.785,0.538-1.463,1.281-1.943,2.133c-1.9,3.307-1.231,7.448-0.998,11.364c0.273,4.778,0.521,8.899,1.213,13.453
	c0.166,1.111,0.951,1.98,0.951,3.181c-0.951-0.098-1.777-0.574-2.644-0.574c0,0.189,0,0.386,0,0.574
	c0.902,0.467,1.62,1.218,2.496,1.783c1.528,0.987,3.727,1.085,5.7,1.085c1.158-0.565,3.412-0.287,4.759-0.287
	c0-0.098,0-0.188,0-0.287c0.183-0.205,0.265-0.287,0-0.287c-0.198-0.483-0.867-2.007-1.321-2.007c0-0.404-0.174-0.574,0.265-0.574
	c0-0.098,0-0.187,0-0.286c0.379,0,1.056-0.197,1.056,0.286c1.009,1.175,4.495,2.179,4.495,4.017c-0.785,0.843-1.14,2.724,0.34,3.065
	c0.94-0.063,1.891-0.126,2.834-0.197c0.346-0.008,0.265-0.099,0.265,0.286c0.09,0,0.181,0,0.265,0
	c-1.084,1.909-3.95,2.448-5.999,1.731c-0.744-0.27-1.364-1.156-2.199-1.156c-0.76,1.085-2.758,2.6-4.163,2.269
	c-0.587-0.145-1.009-0.781-1.67-0.808c-0.536,0.17-1.074,0.341-1.612,0.511c-0.652,0.072-3.098-1.048-3.255-1.568
	c-0.189-0.6,0.125-0.986,0.125-1.55c-0.174,0-0.346,0-0.529,0c0-0.1,0-0.189,0-0.287c-0.09,0-0.172,0-0.265,0
	c-1.708,3.162-4.536,0.063-6.601,0.224c-1.321,0.089-3.239,1.54-4.487,0.322c-0.23-0.224-0.28-0.144-0.28-0.546
	c-0.785-0.17-2.115-0.601-2.115-1.721c-0.265,0-0.529,0-0.794,0c-0.445,0.879-1.239,1.792-1.289,2.886
	c-0.033,0.618,1.321,2.563,0.759,2.563c0,0.099,0,0.198,0,0.287c-2.131-0.699-3.427-1.676-1.974-4.105
	c0.19-0.322,0.214-0.77,0.653-0.77c0-0.385,0.082-0.287-0.265-0.287c-0.538-0.805-2.09-1.316-1.984-2.553
	c0.091-1.13,3.223-0.601,4.099-0.601c0.364-0.207,1.322-0.071,1.322-0.573c0.091,0,0.182,0,0.264,0c0-0.189,0-0.377,0-0.574
	c-0.669-0.098-1.338-0.189-2.016-0.287c-0.322-0.126-1.833-1.433-1.155-1.433c0.966-0.735,4.758-1.426,4.758,0.859
	c0.173,0,0.356,0,0.528,0c0-0.098,0-0.187,0-0.286c3.148-3.423,2.298-18.095,2.149-23.526c-0.108-3.46,0.248-6.498-0.463-9.696
	c-0.439-1.928-1.274-3.676-2.157-5.369c-0.364-0.69-1.116-1.245-1.116-2.133c-0.173,0-0.346,0-0.529,0
	c0.026,0.484,0.48,2.294,0,2.294c0,0.099,0,0.197,0,0.287c-3.387,0-2.082,0.664-4.296,2.178c-1.098,0.557-2.198,1.12-3.305,1.677
	c-1.776,1.029-3.454,2.777-5.436,3.307c-1.446,0.376-3.075-0.476-4.437-0.672c-0.785,0.035-1.571,0.07-2.356,0.107
	c0.215-1.543,2.38-3.863,2.38-4.303c0.884,0.188,1.769,0.386,2.644,0.573c0-0.098,0-0.187,0-0.287c0.09,0,0.182,0,0.265,0
	c0-0.187,0-0.376,0-0.572c-0.917-0.548-1.495-0.574-2.644-0.574c0-0.189,0-0.377,0-0.574c0.09,0,0.182,0,0.265,0
	c3.247-3.531,3.942,2.294,4.495,2.294c0.223-0.609,0.553-1.433,1.321-1.433c0.265,0.349,0.794,0.663,0.794,1.146
	c0.173,0,0.355,0,0.529,0c-0.248-0.994-0.876-1.764-0.852-2.867c0.108-0.475,0.215-0.95,0.323-1.434
	c0.48,0.215,1.016,0.861,1.586,0.861c0-0.099,0-0.189,0-0.287c0.174,0,0.355,0,0.529,0c0-0.189,0-0.377,0-0.574
	c-1.396-0.6-2.503-2.294-4.189-2.017c-0.942,0.144-1.677,0.932-2.668,0.834c-0.852-0.09-1.256-1.112-2.132-1.112
	c-0.108,3.468-0.867,7.618-4.982,6.668c-0.371-0.09-0.834-0.17-0.834-0.645c-0.406,0.431-3.173,3.899-3.173,2.294
	c-0.09,0-0.173,0-0.265,0c0-0.385,0-0.762,0-1.147c1.331-1.093,4.495-2.455,4.495-4.588c-0.173,0-0.346,0-0.528,0
	c-1.239-0.385-2.437,0.735-3.577,0.044c-0.497-0.305-0.777-0.931-0.992-1.442c-1.158-2.662-1.306-3.477-4.42-3.477
	c0-0.188,0-0.376,0-0.574c0.091,0,0.182,0,0.265,0c0.487-0.52,0.975-1.04,1.462-1.56c0.777-0.941,1.181-2.581,1.181-3.889
	c-0.09,0-0.173,0-0.265,0c0-0.099,0-0.188,0-0.287c-1.231,0.385-2.461,0.771-3.701,1.147c0.14-1.694,0.942-3.011,2.801-2.491
	c0.669,0.188,1.14,0.779,1.949,0.797c0.247-0.054,0.504-0.107,0.752-0.161c0.306-1.004-1.595-2.025-2.338-2.043
	c-1.174-0.045-2.265,0.251-3.347-0.099c-0.545-0.179-4.246-3.164-4.659-3.647c-0.108-0.332-0.207-0.655-0.314-0.986
	c-0.256-1.873,0.661-2.993,0.661-4.562c-0.223-0.224-1.132-1.147-0.529-1.147c0.249-0.592,1.19-2.295,1.851-2.295
	c-0.801-1.084-3.041-2.778-1.694-4.49c0.669-0.86,1.694-0.636,1.694-2.106c0.264,0,0.528,0,0.793,0
	c0.785,1.218,1.603,2.581,3.174,2.581c0-0.099,0-0.188,0-0.287c0.172,0,0.355,0,0.528,0c0-0.099,0-0.188,0-0.287
	c-0.62,0-1.232,0-1.851,0c0-0.475,0-0.95,0-1.434c0.091,0,0.183,0,0.265,0c0-0.099,0-0.188,0-0.287
	c0.686,0.072,1.62,0.224,2.298,0.009c0.363-0.125,0.685-0.582,1.139-0.582c0,0.099,0,0.197,0,0.287
	c0.289,0.403,0.702,1.434,1.322,1.434c0,0.287,0,0.574,0,0.861c-0.174,0-0.346,0-0.529,0c-1.148,0.188-2.288,0.385-3.436,0.574
	c-0.091,0.385-0.174,0.771-0.265,1.147c1.255,1.138,1.321,1.936,1.321,3.728c-0.172,0-0.346,0-0.528,0
	c-2.463-3.675-3.173,5.655-3.173,5.449c0.09,0,0.182,0,0.265,0c0.215-0.385,0.793-0.923,0.793-1.434c0.091,0,0.182,0,0.265,0
	c0.694,0.125,1.215-0.287,1.85-0.287c0-0.099,0-0.188,0-0.286c-0.281-0.135-1.694-1.147-1.058-1.147c0-0.099,0-0.188,0-0.287
	c0.678-0.161,1.364-0.323,2.041-0.484c0.355-0.17,0.694-0.663,1.132-0.663c-0.413-2.16,0.769-2.752,2.322-3.28
	c0.537-0.099,1.083-0.197,1.619-0.305c0.819,0.403,1.636,0.816,2.446,1.219c0.999,0.072,1.371-1.075,2.074-1.075
	c-0.215-0.466-0.529-0.869-0.529-1.434c-0.355,0-0.265,0.09-0.265-0.287c1.239-0.825,2.066-4.589,2.644-4.589
	c0-0.287,0-0.574,0-0.86c-0.372,0-0.529-0.188-0.529,0.287c-0.537,0.484-1.065,0.977-1.603,1.461
	c-1.082,0.502-2.627-0.825-2.627-2.035c0.24-0.268,1.091-1.147,0.529-1.147c-0.198-0.421-0.794-0.941-0.794-1.434
	c-0.173,0-0.346,0-0.528,0c-0.1,0.798-0.132,1.46-0.513,2.106c-0.544,0.896-1.866,1.568-1.866,2.77c0.413,0,1.322-0.225,1.322,0.287
	c0.231,0.313,0.529,0.69,0.529,1.147c-1.198-0.206-1.859-0.654-2.769-1.362c-1.173-0.914-1.603-2.438-2.544-3.495
	c-0.999-0.914-1.991-1.828-2.991-2.742c-0.595-0.484-1.19-0.968-1.793-1.452c-0.073-0.233-0.14-0.466-0.215-0.699
	c1.14-1.049,2.066-2.581,3.703-2.581c-0.224-1.067-0.265-2.017-0.265-3.155c1.181-0.672,4.114-3.379,4.403-4.903
	c0.058-0.323-0.066-0.547,0.356-0.547c0-0.099,0-0.188,0-0.287c0.627,0.036,1.717,0.296,2.214-0.197
	c0.396-0.413,0.14-2.098,0.693-2.098c0-0.098,0-0.188,0-0.287c0.769,0.448,1.71,2.294,2.644,2.294c0,0.099,0,0.197,0,0.287
	c0.09,0,0.182,0,0.265,0c0.09-1.048,0.182-2.097,0.265-3.154c1.289-0.144,1.933,0.86,3.173,0.86c0-0.385-0.091-0.287,0.264-0.287
	c0-0.386,0.084-0.287-0.264-0.287c0.042-1.236,0.091-2.473,0.132-3.71c0.223-0.672,0.445-1.344,0.661-2.025
	c0.364,0,0.529-0.152,0.529,0.287c1.016,1.273,0.669,5.368,0.016,6.73c-0.322,0.654-1.338,1.336-1.338,2.16c0.091,0,0.182,0,0.264,0
	c1.323,1.434,3.718,4.105,2.603,6.408c-0.925,1.891-1.809,1.792-1.809,4.49c0.09,0,0.182,0,0.265,0
	c0.892-1.039,3.206-4.015,4.495-4.015c0.297,0.484,2.908,3.441,2.908,3.441c0.455-0.654,0.528-2.267,0.528-3.154
	c-0.793,0-1.586,0-2.38,0c0-0.188,0-0.376,0-0.573c0.091,0,0.183,0,0.265,0c0.637-1.703,2.38-3.164,2.38-5.163
	c-0.793,0.386-1.586,0.771-2.38,1.147c0.157,0.368,0.719,1.147,0.265,1.147c-0.537,0.762-1.19,1.147-2.115,1.147
	c-0.189-0.51-1.306-4.588-0.529-4.588c0,0.099,0,0.197,0,0.287c1.14,0.161,3.239-0.431,2.743-2.124
	c-0.454-1.532-2.627-1.317-3.8-1.317c0-0.098,0-0.188,0-0.287c-0.538-1.165-0.579-3.513,0.396-4.428
	c0.562-0.448,1.123-0.896,1.677-1.344c0.298-0.448,0.528-1.685,1.098-1.685c0,0.099,0,0.197,0,0.287c0.091,0,0.183,0,0.265,0
	c0.249,0.825,0.389,2.455,1.529,2.348c0.042-0.009,0.091-0.018,0.132-0.036c0,0,1.777-2.895,1.777-1.739
	c0.825-0.906,1.114-1.434,2.379-1.434c0,0.376-0.091,0.287,0.265,0.287c0,0.287,0,0.574,0,0.86c-0.314-0.17-0.669-0.574-1.057-0.574
	c0,0.188,0,0.386,0,0.574c-0.174,0.368-0.48,1.434,0,1.434c0,0.099,0,0.197,0,0.286c0.537,0.054,2.115,0.153,2.115,0.861
	c0.09,0,0.182,0,0.265,0c0-0.385-0.091-0.287,0.265-0.287c0-1.218-0.091-2.581,0.28-3.602c0.149-0.421,1.571-1.829,1.571-0.986
	c0.504,0.798,0.925,2.581,2.115,2.581c0.471-0.807,1.338-2.294,2.38-2.294c-0.091,0.573-0.174,1.147-0.265,1.721
	c0.09,0,0.182,0,0.265,0c0.346,0.188,1.322,0.753,1.322,0.287c0.396-0.537,0.529-1.254,0.529-2.007
	c0.553-0.144,2.115-0.69,2.115-1.434c1.949,0.583,1.932,1.963,4.239,0.887c0.297-0.144,0.785-0.162,0.785-0.6
	c1.205,0.358,4.858,2.626,4.914-0.296c-0.23-0.95-0.454-1.9-0.684-2.859C90.993,69.513,91.256,69.226,91.52,68.939z"/>
<g>
	<path class="st2" d="M181.518,292.035h-1.392v-7.636h-2.703v-1.319h6.816v1.319h-2.721V292.035z M186.46,292.035h-1.28v-8.954
		h2.052l2.11,7.153l2.031-7.153h2.017v8.954h-1.278v-7.514l-2.146,7.514h-1.251l-2.254-7.636V292.035z"/>
</g>
</svg>
